<svg xmlns="http://www.w3.org/2000/svg" viewBox="0 0 976.39 376.16"><defs><style>.cls-1{fill:#fff;}.cls-2{fill:#bdd5d1;}</style></defs><title>Asset 1</title><g id="Layer_2" data-name="Layer 2"><g id="Layer_1-2" data-name="Layer 1"><path class="cls-1" d="M314.69,376.16q-7.26-2.52-10.1-7.26a21.69,21.69,0,0,1-2.84-11.36,54.14,54.14,0,0,1,3-16.73q3-9.15,6.47-17.36,6.3-13.87,15.94-31.4t21.14-36.61q11.52-19.09,24-38.82t24.46-38.35q10.72-16.41,20.67-31.72t18.15-29.2q2.83-4.72,7.58-12.14T452.93,89q5-8.83,10.26-18.62t9.31-19.1a157,157,0,0,0,6.63-17.67,51.79,51.79,0,0,0,2.52-14.67q0-7.89-6-10.42Q464.93,6.27,450.56,13T419.32,33.09a443,443,0,0,0-35.51,31.4q-18.63,18.15-37.72,39.14T308.38,147q-18.63,22.41-35.67,43.87T241,231.45q-14.67,19.1-25.4,33.62l-16.41,21.77q-7.27,9.17-11.37,10.42T185,288.74c.42-2.95.95-6.26,1.58-9.95s1.47-7.52,2.52-11.52q1.58-7.25,3.32-15.62t3.15-16.72q1.43-8.37,2.37-16.1a116.62,116.62,0,0,0,1-14.05,41.14,41.14,0,0,0-1.42-11.68q-1.42-4.72-4.58-6.31-7.89-1.89-21.3,6.79t-29.35,23.67q-15.94,15-33.46,34.24T74.82,290q-16.41,19.26-30.45,36.61T21.48,355.33l-8.83,11.05v-.32l-2.21,2.53c2.31.41,2.73,1.89,1.26,4.42a6.36,6.36,0,0,1-5,2.84q-3.48-.94-4.42-1.9A9.52,9.52,0,0,1,.5,370.8,5.69,5.69,0,0,0,0,369.22q-.31-5.06,4-15.31a231.69,231.69,0,0,1,11.52-23.35q7.24-13.1,16.73-28.41t19.25-30.61q9.78-15.32,19.25-29.36t16.73-25.09l11.36-16.73q7.89-11.67,17.52-25.88t19.25-29q9.61-14.83,18.3-29.36t15.31-26.82q2.2-4.11,4.58-9.47t4.42-11a96.73,96.73,0,0,0,3.31-11.2,45.09,45.09,0,0,0,1.26-9.94,16.81,16.81,0,0,0-2.36-9.31Q178,34.67,172,34.67a34.18,34.18,0,0,0-11,2.21A100.37,100.37,0,0,0,138.1,48.55a203.63,203.63,0,0,0-23.67,18.62q-11.84,10.74-23.19,23t-21,24.61q-9.63,12.32-17.36,23.36a176.7,176.7,0,0,0-12.15,19.56,157.33,157.33,0,0,0-7.58,16.1A38.85,38.85,0,0,0,30,188.05a16.21,16.21,0,0,0,1.89,7.89,13.93,13.93,0,0,0,6.31,5.69H37.9A2.11,2.11,0,0,1,39.32,204a6.81,6.81,0,0,1-1.74,3.63c-1.26,1.27-2.95,1.48-5,.64q-10.73-5.37-10.73-17.68a41.65,41.65,0,0,1,2.37-13.1,112.13,112.13,0,0,1,6.15-14.67,256.4,256.4,0,0,1,18.46-30,391,391,0,0,1,25.73-32.66q14.2-16.26,30-31.09A292.23,292.23,0,0,1,135.42,43.5a195.94,195.94,0,0,1,20.52-11.2q10.41-4.89,18.62-4.89a15.63,15.63,0,0,1,13.25,6.94A26.93,26.93,0,0,1,190,39.56,21.39,21.39,0,0,1,191,46q0,10.41-6,25.09a267,267,0,0,1-14.83,30.3Q161.31,117,151.68,132t-16.89,25.72q-8.2,13-17.52,26.52T99.12,211.09Q80.19,238.87,62.2,266.33t-33.77,54q-1.89,2.83-4.74,8.05t-5.83,11.2q-3,6-5.69,11.84a50.52,50.52,0,0,0-3.63,10.25l6.63-8.52Q25,340.49,37.58,324.71t26.51-32.5Q78,275.49,92.5,258.91t28.72-31.09q14.21-14.52,27.3-25.72a151.22,151.22,0,0,1,23.83-17.2q11.67-6.32,19.57-6.31,9.15,0,12.15,7.1a41.6,41.6,0,0,1,3,16.25q0,5.06-.32,9.63t-.95,8.36l-6,31.25L193.5,284l3.15-4.1,16.73-22.41q11-14.52,21.78-28.88t22.09-28.88q6.3-8.21,17-21.93t24.46-30.14q13.72-16.41,29.51-34.56t32.35-35.51q16.58-17.36,33.46-32.66a309.06,309.06,0,0,1,32.51-26Q442.2,8.15,456.09,3.1t24.3-1.89q9.47,2.84,9.47,15.15,0,10.41-6.16,25.56A325.25,325.25,0,0,1,469,73q-8.52,15.94-17.36,30.3T437.46,126.2q-7.89,13.24-17.2,27.45T401.8,182.06q-10.41,16.09-21.15,32.82t-20.83,33.3q-10.1,16.57-19.09,32.66t-16.26,30.94q-2.52,5-5.2,10.73t-4.74,11.36c-1.37,3.79-2.52,7.46-3.47,11.05a38.29,38.29,0,0,0-1.42,9.78,17,17,0,0,0,2.21,9q2.2,3.63,7.57,5.21,3.48,1.26.64,4.74a6,6,0,0,1-5.05,2.52Z"/><path class="cls-1" d="M459.67,213.44a6.86,6.86,0,0,1-.64,4.45c-.76,1.77-1.4,3.34-1.9,4.69v-.25l-.51,1.52q-5.33,13.46-5.33,20.31,0,5.84,5.33,5.84,7.86,0,32-13.2v.25q6.6-3.56,12.69-7.23t12.7-7.74a4.08,4.08,0,0,1,2.54-.64,2.09,2.09,0,0,1,1.77,1.14,1.85,1.85,0,0,1-.38,2.16,7.51,7.51,0,0,1-1.9,1.4q-6.34,3.8-14.73,8.88t-17,9.65a171.8,171.8,0,0,1-16.63,7.74q-8,3.18-13.33,3.17t-8-3.3q-2.67-3.3-1.4-11.42c.51-1.86,1.31-4.4,2.42-7.62s2.15-6.17,3.17-8.88l-.51.51q-5.08,5.32-11.42,12t-13.2,13.46q-6.86,6.72-13.46,12.31A82,82,0,0,1,400,271.32a18.61,18.61,0,0,1-5.2,1.9,9.17,9.17,0,0,1-5.08-.13,5.34,5.34,0,0,1-3.17-3.29c-.67-1.69-.51-4.06.51-7.11a59.37,59.37,0,0,1,2.79-6.73,76.59,76.59,0,0,1,3.93-7.11q2.16-3.42,4.45-6.47c1.52-2,2.88-3.81,4.06-5.33a145.11,145.11,0,0,1,17.26-17.77,129.12,129.12,0,0,1,15.61-11.55,57,57,0,0,1,13.2-6.22,36.5,36.5,0,0,1,10-1.78q4.05,0,6.09,1.53a4.62,4.62,0,0,1,2,3.81q0,3.56-5.33,7.61Zm-1-4.57c1.69-1.18,2.29-2.19,1.78-3s-1.82-1.23-3.94-1.15a32.26,32.26,0,0,0-8.63,2,56.94,56.94,0,0,0-12.06,6.21,80.16,80.16,0,0,0-12.18,9.78q-6.86,6.48-13.33,13.71A128.62,128.62,0,0,0,399,250.89q-4.83,7.23-6.09,12.05c-.51,1.7-.26,3,.76,3.81s2.37.93,4.06.25a45.5,45.5,0,0,0,8.63-6.09q5.07-4.31,10.92-9.9T429,239.34q5.83-6.1,10.92-11.43,5.83-6.33,10.15-10.66a57.39,57.39,0,0,1,4.82-4.57,10.12,10.12,0,0,1,1.78-.5,5.28,5.28,0,0,1,.38-1.78A2.73,2.73,0,0,1,458.65,208.87Z"/><path class="cls-1" d="M556.12,195.17c3,1,6.55.25,10.53-2.29a65.77,65.77,0,0,0,11.93-10,116.25,116.25,0,0,0,10.92-13.2A135.09,135.09,0,0,0,597,158.11a29.29,29.29,0,0,0,2.79-11.68,12,12,0,0,0-1.65-6.47c-1.1-1.78-3-2.67-5.71-2.67a20.07,20.07,0,0,0-6.85,1.53q-9.41,3.56-18.92,13.32a171.42,171.42,0,0,0-18,22.08q-8.5,12.32-15.74,24.88t-12,21.45q12.18-1,27.41-1.9t28.43-.89q7.37,0,13.33.5a56.69,56.69,0,0,1,9.64,1.53c2.45.68,4.11,1.57,5,2.66s.5,2.42-1,3.94a6.73,6.73,0,0,1-2.16,1.14c-1.1.42-2.16.81-3.17,1.14-1.87.35-3,.22-3.56-.38s-.08-1.39,1.27-2.41h-.25q1.26-1.77-5.46-2.28t-17.64-.51q-6.86,0-14.47.25T543.3,224q-7.23.38-14,.89c-4.48.34-8.34.59-11.55.76l-7.11,13.45q-5.32,10.41-12.81,24T482,289.85q-8.37,13.2-17,24.24t-16.5,16.63q-7.86,5.07-13.45,5.07a14.45,14.45,0,0,1-4.31-.63c-1.36-.42-2.71-.89-4.07-1.4q-2.79-1.77-.25-4.31c1.52-1.53,3-1.87,4.57-1l-.25-.25a12.89,12.89,0,0,1,1.52.63,10.94,10.94,0,0,0,1.52.64q5.6,1.53,11.68-2.41a55,55,0,0,0,11.67-10.41,124.68,124.68,0,0,0,10.28-13.71q4.71-7.23,7.75-12.06l1.52-2.28q6.09-10.15,12.44-22t12.94-23.73l9.4-17-8.13,1h.26c-1.87.34-3,.17-3.3-.51s.34-1.52,2-2.54a15.11,15.11,0,0,1,2.66-1.27,19.47,19.47,0,0,1,2.67-.76l6.34-.51q8.89-16,18.15-31.22a313.71,313.71,0,0,1,19.67-28.68,110.57,110.57,0,0,1,9.91-11.17,99.71,99.71,0,0,1,12.18-10.41,55.58,55.58,0,0,1,12.69-7,19,19,0,0,1,11.93-.89,11.28,11.28,0,0,1,6.35,4.19,12.41,12.41,0,0,1,2,7.24,31.93,31.93,0,0,1-2.79,12.05,84.31,84.31,0,0,1-7.37,13.71,109.59,109.59,0,0,1-10.4,13.45,84.12,84.12,0,0,1-11.93,11,48.2,48.2,0,0,1-11.8,6.73c-3.82,1.44-7.24,1.65-10.29.63q-2.79-1.77-.25-4.31t4.32-1.52Z"/><path class="cls-1" d="M606.12,223.6A234.59,234.59,0,0,0,595,245.3q-4.31,9.78-4.31,16.12,0,7.11,6.6,7.11,5.32,0,15.36-4.57t25.76-14.72q9.64-6.6,19-13.33t18.78-13.58a2.87,2.87,0,0,1,2.16-1.14,2.25,2.25,0,0,1,2.16.89q.5.51,0,1.77a4.61,4.61,0,0,1-1.53,2q-7.1,5.33-17.26,12.57T640.9,252.66q-10.67,7-20.95,12.69a93,93,0,0,1-17.89,8,29.28,29.28,0,0,1-7.61,1c-3.9,0-6.6-1-8.13-2.93A11.78,11.78,0,0,1,584,264a31.91,31.91,0,0,1,1.78-9.78A115.12,115.12,0,0,1,590.13,243q2.54-5.72,5.33-11t5.08-9.14a6.25,6.25,0,0,1,1.52-1.53,5.64,5.64,0,0,1,2.29-1,2,2,0,0,1,2.28.38C607.14,221.27,607,222.25,606.12,223.6Zm17.26-49c-2.87.5-3.72-.43-2.53-2.8v.26a3.57,3.57,0,0,1,1.39-1.91,9.91,9.91,0,0,1,2.41-1.39c3.72-.68,5.63,0,5.71,2.16s-.72,4.69-2.41,7.74a87.33,87.33,0,0,1-6.09,9.39c-2.37,3.22-4.15,5.58-5.33,7.11a5.64,5.64,0,0,1-2,1.65,5,5,0,0,1-2,.63,2,2,0,0,1-2-1.14c-.34-.76,0-1.65,1-2.67v.26q.51-.77,2.92-3.94t4.83-6.72q2.4-3.56,3.93-6.22C624.14,175.24,624.23,174.44,623.38,174.61Z"/><path class="cls-1" d="M656.89,266.24q0-6.09,4.57-16.5a257.26,257.26,0,0,1,11.93-23.35q7.36-12.94,17-27.29t19.8-28.55Q698,172.07,687,173.72t-19.42,2.92l-3.3.5a4.12,4.12,0,0,1-4.31-1.77c-.67-.68-.89-1.31-.64-1.91a2.8,2.8,0,0,1,1.65-1.39,5.14,5.14,0,0,1,1.66-.38c.76-.09,1.55-.21,2.4-.38,2.2-.34,5.08-.8,8.63-1.4s7.49-1.18,11.81-1.78l14-1.9q7.49-1,15.1-1.78,14.22-19.8,26.66-36.17T760.46,103l2.54-3a5.07,5.07,0,0,1,4.06-2.29A1.76,1.76,0,0,1,769,99a2.49,2.49,0,0,1-.89,2.54v-.25q-2.79,3.56-7.48,9.64t-10.92,14.34q-6.23,8.25-13.46,18t-14.85,20.43q8.39-.76,17.27-1.39t16-.64a105.55,105.55,0,0,1,13.33.76,35.16,35.16,0,0,1,9.64,2.41q3.67,1.66,4.7,4.44t-1.53,6.86q-1,1-3.8-.25c-2.2-.85-3.14-1.86-2.79-3q2-3.56,0-4.57c-1.36-.67-4.74-1.18-10.16-1.52a160,160,0,0,0-21.57.5q-12.2,1-25.39,2.55Q706.9,184,697.25,198.22t-17.13,26.9A238,238,0,0,0,668.06,248q-4.57,10.17-4.57,15.75c0,3.21,1.19,4.91,3.55,5.07a48.7,48.7,0,0,0,13.33-3.3q6.23-2.53,14.6-6.85a314.47,314.47,0,0,0,29.44-17.39q14.72-9.77,27.16-18.91,3.3-1.79,4.32-.25v-.26a1.73,1.73,0,0,1,.25,2,4.14,4.14,0,0,1-1.77,2q-5.85,4.06-13.33,9.39t-16,10.79q-8.52,5.46-17.39,10.79t-17,9.39a111.85,111.85,0,0,1-15.1,6.35q-7,2.28-11.55,2-3.81-.25-5.46-2.54A9.7,9.7,0,0,1,656.89,266.24Z"/><path class="cls-1" d="M795,213.44a6.8,6.8,0,0,1-.64,4.45c-.75,1.77-1.39,3.34-1.9,4.69v-.25l-.51,1.52q-5.32,13.46-5.33,20.31,0,5.84,5.33,5.84,7.86,0,32-13.2v.25q6.58-3.56,12.69-7.23t12.69-7.74a4.1,4.1,0,0,1,2.54-.64,2.09,2.09,0,0,1,1.78,1.14,1.86,1.86,0,0,1-.39,2.16,7.33,7.33,0,0,1-1.9,1.4q-6.35,3.8-14.72,8.88t-17,9.65A171.67,171.67,0,0,1,803,252.41q-8,3.18-13.33,3.17c-3.56,0-6.22-1.1-8-3.3s-2.24-6-1.39-11.42c.5-1.86,1.31-4.4,2.41-7.62s2.15-6.17,3.17-8.88l-.51.51q-5.08,5.32-11.42,12t-13.2,13.46q-6.86,6.72-13.45,12.31a83.07,83.07,0,0,1-11.93,8.63,18.79,18.79,0,0,1-5.21,1.9,9.14,9.14,0,0,1-5.07-.13,5.33,5.33,0,0,1-3.18-3.29c-.67-1.69-.51-4.06.51-7.11a57.78,57.78,0,0,1,2.8-6.73,72.2,72.2,0,0,1,3.93-7.11q2.16-3.42,4.44-6.47c1.52-2,2.88-3.81,4.06-5.33a145.11,145.11,0,0,1,17.26-17.77,129.91,129.91,0,0,1,15.61-11.55,57.18,57.18,0,0,1,13.2-6.22,36.56,36.56,0,0,1,10-1.78q4,0,6.09,1.53a4.59,4.59,0,0,1,2,3.81q0,3.56-5.33,7.61Zm-1-4.57q2.55-1.77,1.78-3c-.51-.85-1.82-1.23-3.94-1.15a32.2,32.2,0,0,0-8.62,2,56.7,56.7,0,0,0-12.06,6.21,79.19,79.19,0,0,0-12.18,9.78q-6.87,6.48-13.33,13.71a128.75,128.75,0,0,0-11.3,14.47q-4.81,7.23-6.09,12.05c-.51,1.7-.25,3,.76,3.81s2.37.93,4.06.25a45.5,45.5,0,0,0,8.63-6.09q5.08-4.31,10.92-9.9t11.67-11.67q5.84-6.1,10.92-11.43,5.84-6.33,10.15-10.66a54.82,54.82,0,0,1,4.83-4.57,9.89,9.89,0,0,1,1.77-.5,5.28,5.28,0,0,1,.38-1.78A2.73,2.73,0,0,1,794,208.87Z"/><path class="cls-1" d="M648.87,330.86a13.41,13.41,0,0,1-2.46,1.59,9.27,9.27,0,0,1-2.44.79,15.66,15.66,0,0,1-2.63.21,9.43,9.43,0,0,1-4-.77,7.76,7.76,0,0,1-2.78-2.18,9.55,9.55,0,0,1-1.66-3.33,15.06,15.06,0,0,1-.55-4.19,19.84,19.84,0,0,1,.43-4.13,19.44,19.44,0,0,1,1.26-3.89,17.54,17.54,0,0,1,2-3.4,13.89,13.89,0,0,1,2.61-2.69,12,12,0,0,1,3.15-1.78,10.2,10.2,0,0,1,3.63-.64,9.79,9.79,0,0,1,2.33.25,8.12,8.12,0,0,1,1.92.72,7.7,7.7,0,0,1,1.58,1.13A11.06,11.06,0,0,1,652.6,310l-.74.87a.68.68,0,0,1-.55.29,1,1,0,0,1-.65-.42,7,7,0,0,0-1-.91A7.63,7.63,0,0,0,648,309a6.82,6.82,0,0,0-2.58-.42,7.64,7.64,0,0,0-4.12,1.18,11.58,11.58,0,0,0-3.33,3.19,16.36,16.36,0,0,0-2.22,4.62,18.75,18.75,0,0,0-.8,5.47,13.3,13.3,0,0,0,.41,3.37,7.52,7.52,0,0,0,1.26,2.69,5.88,5.88,0,0,0,2.16,1.76,6.76,6.76,0,0,0,3,.63,9.19,9.19,0,0,0,2.51-.3,9.32,9.32,0,0,0,2-.75,8.22,8.22,0,0,0,1.51-1q.65-.54,1.14-1l.86-.75a1.08,1.08,0,0,1,.65-.3.79.79,0,0,1,.55.26l.56.69A22.75,22.75,0,0,1,648.87,330.86Z"/><path class="cls-1" d="M687.33,333.11l3.16-26.32h1.14a.83.83,0,0,1,.92.95l-.77,7.8a20.85,20.85,0,0,1,4.11-6.63,6.86,6.86,0,0,1,4.91-2.33A5.93,5.93,0,0,1,703,307l-.45,2.35a6,6,0,0,0-7.34,2.34,23.74,23.74,0,0,0-3.86,8l-1.59,13.37Z"/><path class="cls-1" d="M744.4,333.45a9.7,9.7,0,0,1-3.84-.74,8,8,0,0,1-2.95-2.14,9.84,9.84,0,0,1-1.9-3.38,14.1,14.1,0,0,1-.67-4.53,19.94,19.94,0,0,1,1-6.13,16.83,16.83,0,0,1,2.67-5.18,13.46,13.46,0,0,1,4.11-3.57,10.42,10.42,0,0,1,5.22-1.33,9.52,9.52,0,0,1,3.83.75,8.41,8.41,0,0,1,3,2.13,9.62,9.62,0,0,1,1.89,3.39,14,14,0,0,1,.68,4.49,19.48,19.48,0,0,1-1,6.11,17.83,17.83,0,0,1-2.68,5.19,13.32,13.32,0,0,1-4.09,3.59A10.39,10.39,0,0,1,744.4,333.45Zm.21-2a7.63,7.63,0,0,0,4.18-1.2,10.9,10.9,0,0,0,3.23-3.19,15.85,15.85,0,0,0,2.07-4.56,19.58,19.58,0,0,0,.73-5.29,10.1,10.1,0,0,0-1.87-6.51,6.35,6.35,0,0,0-5.2-2.29,7.68,7.68,0,0,0-2.88.53,9,9,0,0,0-2.47,1.52,11.76,11.76,0,0,0-2,2.31,14.37,14.37,0,0,0-1.53,2.91,18.79,18.79,0,0,0-1,3.35,19.63,19.63,0,0,0-.33,3.61,10.13,10.13,0,0,0,1.86,6.51A6.34,6.34,0,0,0,744.61,331.47Z"/><path class="cls-1" d="M809.23,330.86a13,13,0,0,1-2.45,1.59,9.27,9.27,0,0,1-2.44.79,15.83,15.83,0,0,1-2.63.21,9.43,9.43,0,0,1-4-.77A7.76,7.76,0,0,1,795,330.5a9.55,9.55,0,0,1-1.66-3.33,15.06,15.06,0,0,1-.55-4.19,19.84,19.84,0,0,1,.43-4.13,20.08,20.08,0,0,1,1.25-3.89,18.11,18.11,0,0,1,2-3.4,14.19,14.19,0,0,1,2.61-2.69,11.89,11.89,0,0,1,3.16-1.78,10.1,10.1,0,0,1,3.62-.64,9.94,9.94,0,0,1,2.34.25,8.21,8.21,0,0,1,1.91.72,8,8,0,0,1,1.58,1.13A11.79,11.79,0,0,1,813,310l-.74.87a.7.7,0,0,1-.56.29,1,1,0,0,1-.64-.42,7.59,7.59,0,0,0-1-.91,7.77,7.77,0,0,0-1.67-.91,6.92,6.92,0,0,0-2.59-.42,7.64,7.64,0,0,0-4.12,1.18,11.58,11.58,0,0,0-3.33,3.19,16.36,16.36,0,0,0-2.22,4.62,18.75,18.75,0,0,0-.8,5.47,13.3,13.3,0,0,0,.41,3.37,7.37,7.37,0,0,0,1.27,2.69,5.76,5.76,0,0,0,2.15,1.76,6.77,6.77,0,0,0,3.06.63,9.21,9.21,0,0,0,2.5-.3,9.53,9.53,0,0,0,2-.75,8.22,8.22,0,0,0,1.51-1c.42-.36.81-.69,1.14-1l.86-.75a1.05,1.05,0,0,1,.65-.3.79.79,0,0,1,.55.26l.55.69A21.27,21.27,0,0,1,809.23,330.86Z"/><path class="cls-1" d="M847.91,333.11l4.64-38.38H855l-2.42,20a20.28,20.28,0,0,1,2.33-3.52,16.06,16.06,0,0,1,2.69-2.61,11.81,11.81,0,0,1,2.89-1.63,8.58,8.58,0,0,1,3-.55,5.21,5.21,0,0,1,4.41,1.9,8.77,8.77,0,0,1,1.47,5.46c0,.14,0,.3,0,.49s0,.49-.09.93-.11,1.07-.19,1.89-.22,1.91-.37,3.29-.36,3.11-.59,5.17-.54,4.57-.89,7.51h-2.48l2-16.77a19,19,0,0,0,.16-2.3,6.92,6.92,0,0,0-1-4.09,3.68,3.68,0,0,0-3.2-1.4,6.58,6.58,0,0,0-2.9.73,11.24,11.24,0,0,0-2.86,2.08,18.78,18.78,0,0,0-2.63,3.29,23.7,23.7,0,0,0-2.18,4.3l-1.72,14.16Z"/><path class="cls-1" d="M926.13,311.88a7.32,7.32,0,0,1-.29,2.06,5.14,5.14,0,0,1-1,1.84,8.34,8.34,0,0,1-2,1.65,15.44,15.44,0,0,1-3.25,1.42,37.5,37.5,0,0,1-4.72,1.16c-1.83.35-4,.65-6.43.92,0,.36-.06.73-.08,1.09s0,.71,0,1.07a9.59,9.59,0,0,0,1.78,6.14,6.47,6.47,0,0,0,5.37,2.21,9.37,9.37,0,0,0,2.52-.3,9.8,9.8,0,0,0,2-.77,10.5,10.5,0,0,0,1.56-1c.45-.35.85-.68,1.2-1s.65-.57.91-.78a1.14,1.14,0,0,1,.7-.3.75.75,0,0,1,.55.26l.58.69a25.59,25.59,0,0,1-2.52,2.36,13.83,13.83,0,0,1-2.48,1.62,11.66,11.66,0,0,1-2.59.94,13.25,13.25,0,0,1-2.88.3,9.74,9.74,0,0,1-3.89-.73,7.7,7.7,0,0,1-2.86-2.05,8.86,8.86,0,0,1-1.77-3.25,14.22,14.22,0,0,1-.61-4.28,20.74,20.74,0,0,1,.4-4,19.3,19.3,0,0,1,1.18-3.85,17.39,17.39,0,0,1,1.92-3.46,14,14,0,0,1,2.63-2.8,11.74,11.74,0,0,1,3.27-1.86,10.44,10.44,0,0,1,3.87-.69,8.72,8.72,0,0,1,3.26.54,6.8,6.8,0,0,1,2.16,1.34,5,5,0,0,1,1.57,3.5ZM919,308.34a8,8,0,0,0-3.81.9,10.46,10.46,0,0,0-3,2.39,13.72,13.72,0,0,0-2.19,3.45,18.82,18.82,0,0,0-1.3,4.1c2.23-.24,4.16-.53,5.77-.85a40.39,40.39,0,0,0,4.12-1,12.71,12.71,0,0,0,2.73-1.18,6.81,6.81,0,0,0,1.62-1.3,3.52,3.52,0,0,0,.77-1.39,5.12,5.12,0,0,0,.2-1.47,3.27,3.27,0,0,0-.25-1.2,3.08,3.08,0,0,0-.83-1.18,4.74,4.74,0,0,0-1.51-.88A6.48,6.48,0,0,0,919,308.34Z"/><path class="cls-1" d="M963.9,328.7c0-.1,0-.23,0-.39s0-.4.05-.71.07-.73.13-1.23.14-1.14.22-1.91l1.8-14.9h-3.45c-.36,0-.53-.17-.53-.51l.13-1.07,4.14-.32,1.74-9.39a.89.89,0,0,1,.24-.42.58.58,0,0,1,.44-.19H970l-1.24,10h7.59l-.21,1.88h-7.59l-1.82,14.8c-.09.72-.16,1.31-.21,1.76s-.1.83-.13,1.13-.06.5-.07.64,0,.25,0,.31a3.31,3.31,0,0,0,.81,2.48,2.89,2.89,0,0,0,2.07.76,4.07,4.07,0,0,0,1.54-.27,7.62,7.62,0,0,0,1.18-.61,7.43,7.43,0,0,0,.81-.6.94.94,0,0,1,.48-.28.34.34,0,0,1,.24.07.79.79,0,0,1,.15.19l.48,1.11a7.93,7.93,0,0,1-2.56,1.8,7.27,7.27,0,0,1-3,.68,4.65,4.65,0,0,1-3.39-1.19A4.88,4.88,0,0,1,963.9,328.7Z"/><path class="cls-2" d="M934.31,234.12c5.39-9,3.26-20.24-4.76-25-6.74-4-15.48-2.19-21.3,3.86,2.56-8,0-16.56-6.74-20.58-8-4.78-18.89-1.33-24.28,7.71-4.79,8-.82,39.29,5.77,49.38a3.15,3.15,0,0,0,1.55,2.12,4,4,0,0,0,.51.24c.16.12.31.25.46.34a3.2,3.2,0,0,0,2.6.36C900.14,253.53,929.51,242.17,934.31,234.12Z"/></g></g></svg>